<?xml version="1.0" standalone="no"?>
<!DOCTYPE svg PUBLIC "-//W3C//DTD SVG 20010904//EN"
 "http://www.w3.org/TR/2001/REC-SVG-20010904/DTD/svg10.dtd">
<svg version="1.0" xmlns="http://www.w3.org/2000/svg"
 width="723.000000pt" height="862.000000pt" viewBox="0 0 723.000000 862.000000"
 preserveAspectRatio="xMidYMid meet">

<g transform="translate(0.000000,862.000000) scale(0.100000,-0.100000)"
fill="#000000" stroke="none">
<path d="M3596 8405 l-26 -24 0 -235 c0 -129 -3 -241 -6 -250 -3 -8 -28 -22
-55 -31 -70 -24 -149 -99 -185 -177 -40 -87 -46 -225 -14 -309 22 -60 88 -144
120 -154 30 -9 25 -30 -35 -152 -90 -183 -206 -310 -435 -473 -133 -95 -217
-144 -523 -302 -314 -162 -396 -208 -532 -299 -480 -319 -785 -736 -905 -1234
-58 -241 -65 -320 -65 -770 1 -387 15 -688 44 -897 l8 -58 -115 0 c-127 0
-173 -14 -196 -59 -26 -51 -27 -80 -7 -127 32 -71 47 -74 341 -74 l250 0 0
-229 0 -229 -41 -7 c-22 -4 -77 -25 -122 -48 -155 -77 -281 -239 -317 -408
-18 -83 -9 -259 19 -337 66 -192 230 -342 427 -392 329 -84 669 100 766 415
49 157 19 363 -72 502 -82 125 -236 237 -366 266 l-59 14 -3 226 -2 227 1020
0 1020 0 0 -355 0 -355 -23 0 c-43 0 -172 -42 -242 -78 -87 -46 -236 -190
-288 -279 -104 -181 -131 -395 -76 -603 68 -253 284 -461 554 -531 107 -28
279 -30 390 -5 266 60 496 269 575 521 30 96 38 281 16 385 -35 171 -165 363
-319 471 -78 54 -204 107 -278 116 l-49 6 0 353 0 354 1015 0 1015 0 0 -224 0
-224 -52 -12 c-202 -46 -388 -230 -443 -436 -10 -36 -16 -101 -16 -164 0 -183
46 -295 176 -426 136 -138 274 -190 475 -181 182 8 306 63 428 192 161 169
209 390 133 610 -34 101 -84 177 -166 253 -66 62 -196 136 -260 148 l-35 6 0
229 0 229 250 0 c278 0 294 3 330 63 38 62 15 148 -49 182 -22 11 -60 15 -141
15 -101 0 -110 1 -110 19 0 10 4 65 10 122 17 174 19 201 25 294 30 449 22
860 -21 1115 -75 446 -257 805 -563 1111 -216 215 -403 339 -866 572 -126 64
-284 146 -350 183 -326 181 -540 376 -650 594 -36 72 -66 160 -54 160 5 0 27
16 50 37 191 173 127 513 -116 614 l-55 23 0 237 c0 153 -4 247 -11 262 -23
50 -100 62 -143 22z m152 -747 c68 -41 95 -148 55 -224 -27 -53 -74 -79 -144
-79 -45 0 -63 5 -91 27 -112 86 -79 268 53 298 44 9 86 2 127 -22z m69 -913
c73 -98 241 -260 349 -337 113 -80 271 -173 473 -279 554 -289 734 -409 952
-636 136 -143 223 -266 308 -438 126 -253 186 -481 212 -808 13 -162 7 -530
-16 -902 -8 -132 -15 -257 -15 -277 l0 -38 -1092 1 c-971 0 -1087 2 -1039 15
243 65 454 236 557 451 56 116 77 232 71 398 -6 190 -34 292 -131 489 -98 198
-180 321 -510 760 l-275 365 -214 -282 c-285 -375 -347 -460 -439 -601 -193
-295 -268 -510 -268 -766 0 -233 61 -400 203 -555 107 -118 226 -193 387 -246
l85 -28 -1082 -1 -1082 0 -5 43 c-18 142 -31 506 -31 852 0 330 3 421 18 520
36 242 85 410 177 600 131 269 315 485 585 685 162 120 252 173 666 393 129
69 287 157 350 197 297 186 480 370 600 603 l50 98 48 -98 c27 -54 75 -134
108 -178z m-7 -1845 c304 -408 445 -649 496 -847 22 -86 25 -113 21 -218 -4
-99 -9 -132 -31 -190 -75 -197 -252 -349 -481 -415 l-65 -19 0 123 0 123 50
11 c122 28 212 96 263 199 38 75 50 145 44 244 -12 180 -78 328 -283 634 -148
221 -162 240 -168 234 -18 -18 -116 -159 -197 -282 -200 -303 -269 -500 -241
-690 20 -140 80 -231 194 -296 29 -17 77 -36 106 -42 l52 -12 0 -119 c0 -139
6 -135 -120 -89 -111 41 -193 93 -275 176 -77 77 -112 131 -152 233 -24 61
-27 80 -27 207 -1 136 0 143 37 250 45 129 122 280 217 421 98 146 400 554
410 554 4 0 72 -86 150 -190z m-68 -677 c121 -239 146 -319 128 -409 -13 -60
-68 -131 -124 -158 -72 -34 -180 -11 -238 50 -54 58 -72 153 -48 249 12 44
190 415 200 415 4 0 41 -66 82 -147z m2483 -1050 c-6 -112 -10 -143 -21 -143
-18 0 -18 3 3 190 21 179 28 158 18 -47z m-5101 -61 c5 -66 4 -83 -6 -80 -19
7 -27 69 -26 208 l1 125 12 -85 c7 -47 15 -123 19 -168z m2406 -212 c0 -11
-1760 -11 -1940 0 -52 4 363 7 923 8 688 1 1017 -1 1017 -8z m2128 5 c-3 -3
-424 -8 -937 -12 -691 -4 -931 -3 -931 6 0 8 245 11 937 11 515 0 934 -2 931
-5z m-4274 -574 c-13 -14 -19 23 -18 122 2 226 7 248 15 67 4 -102 6 -187 3
-189z m4563 180 c4 -167 3 -181 -13 -181 -15 0 -16 8 -10 77 3 42 6 126 6 186
0 174 12 117 17 -82z m-4446 -420 c231 -72 345 -331 241 -544 -83 -168 -280
-253 -460 -198 -174 52 -282 196 -282 375 0 114 29 184 109 269 101 107 246
143 392 98z m4593 -19 c80 -38 150 -106 191 -188 28 -55 30 -67 30 -169 0
-127 -15 -170 -92 -255 -132 -147 -373 -171 -528 -52 -108 82 -160 197 -153
336 9 163 97 284 252 343 89 34 208 28 300 -15z m-2328 -223 c283 -51 480
-345 420 -627 -21 -101 -67 -181 -145 -255 -224 -211 -545 -212 -756 -2 -207
205 -207 535 1 740 72 72 138 109 236 135 84 22 159 25 244 9z"/>
<path d="M3586 6465 c-112 -40 -170 -186 -117 -300 73 -158 307 -152 382 10
79 171 -87 354 -265 290z m129 -140 c52 -51 16 -145 -55 -145 -44 0 -80 39
-80 85 0 46 36 85 80 85 19 0 40 -9 55 -25z"/>
<path d="M3085 6116 c-65 -28 -114 -120 -101 -189 9 -48 44 -96 86 -119 54
-30 140 -21 181 18 44 42 59 76 59 137 0 68 -28 113 -90 145 -50 25 -91 27
-135 8z m100 -111 c30 -29 32 -68 5 -95 -27 -27 -56 -25 -86 6 -30 29 -27 67
8 97 27 23 44 22 73 -8z"/>
<path d="M4080 6108 c-64 -32 -92 -85 -87 -161 10 -163 202 -217 301 -84 16
22 21 43 21 95 0 79 -23 120 -85 152 -51 26 -95 25 -150 -2z m127 -114 c32
-50 -21 -119 -73 -96 -34 16 -50 55 -36 87 22 47 80 52 109 9z"/>
<path d="M2677 5876 c-50 -18 -76 -42 -98 -91 -33 -72 -22 -135 34 -193 99
-103 277 -24 277 123 0 40 -27 101 -58 128 -20 18 -85 46 -107 46 -5 0 -27 -6
-48 -13z m92 -122 c26 -34 26 -54 1 -82 -28 -30 -64 -28 -90 5 -22 28 -21 63
2 90 18 23 65 15 87 -13z"/>
<path d="M4520 5858 c-51 -35 -73 -71 -78 -131 -13 -165 178 -246 287 -121 68
76 42 212 -49 259 -44 23 -121 19 -160 -7z m124 -97 c26 -29 18 -82 -16 -101
-25 -13 -31 -13 -55 0 -34 19 -42 61 -18 96 19 30 64 32 89 5z"/>
<path d="M2210 5571 c-121 -64 -117 -248 7 -303 145 -64 277 72 217 223 -35
87 -141 125 -224 80z m114 -102 c45 -36 23 -109 -33 -109 -61 0 -85 90 -31
117 33 17 33 16 64 -8z"/>
<path d="M4951 5568 c-60 -41 -76 -71 -76 -147 0 -59 4 -72 29 -105 51 -67
127 -83 206 -43 80 40 110 136 71 223 -26 57 -72 87 -140 92 -46 3 -62 0 -90
-20z m128 -102 c18 -21 17 -75 -2 -93 -23 -23 -68 -19 -89 7 -22 27 -23 49 -2
78 18 26 74 31 93 8z"/>
<path d="M1884 5206 c-90 -40 -127 -184 -67 -265 39 -51 70 -66 138 -66 49 0
70 5 91 21 89 66 105 183 37 265 -47 56 -130 75 -199 45z m121 -119 c35 -50 5
-107 -57 -107 -50 0 -79 79 -40 112 35 31 73 29 97 -5z"/>
<path d="M5305 5201 c-120 -62 -125 -243 -10 -309 31 -18 51 -22 93 -19 163
12 214 220 80 320 -39 29 -114 33 -163 8z m109 -102 c48 -38 26 -119 -33 -119
-32 0 -44 8 -60 38 -16 30 0 75 32 90 30 15 31 15 61 -9z"/>
<path d="M5571 4750 c-39 -9 -76 -35 -105 -74 -30 -40 -30 -153 0 -193 74 -99
221 -100 283 0 83 135 -27 300 -178 267z m81 -117 c22 -20 23 -70 1 -95 -20
-22 -76 -24 -93 -2 -19 22 -16 70 5 94 22 24 62 26 87 3z"/>
<path d="M1620 4727 c-73 -48 -99 -149 -58 -227 13 -25 39 -55 58 -68 49 -33
142 -28 193 11 95 72 82 238 -23 292 -45 23 -130 19 -170 -8z m132 -94 c22
-20 23 -70 1 -95 -31 -35 -101 -15 -104 30 -5 69 56 108 103 65z"/>
<path d="M1555 4206 c-39 -17 -80 -65 -95 -112 -28 -83 12 -193 82 -231 50
-26 127 -21 181 10 118 69 116 266 -3 327 -45 23 -120 26 -165 6z m119 -117
c34 -27 35 -71 1 -104 -32 -33 -68 -32 -94 1 -28 35 -26 69 4 99 30 30 54 31
89 4z"/>
<path d="M5603 4195 c-53 -32 -88 -100 -87 -171 2 -105 75 -177 179 -177 80 0
138 40 170 115 32 79 7 172 -60 224 -54 41 -143 45 -202 9z m121 -96 c49 -23
53 -104 7 -128 -73 -40 -137 54 -79 116 24 26 36 28 72 12z"/>
<path d="M3620 3923 c-58 -92 -66 -169 -21 -214 68 -67 165 -2 146 98 -10 54
-70 163 -89 163 -3 0 -20 -21 -36 -47z"/>
</g>
</svg>
