<?xml version="1.0" encoding="UTF-8"?>
<svg version="1.1" xmlns="http://www.w3.org/2000/svg" width="157" height="199">
<path d="M0 0 C2.13971972 3.20957957 2.20581217 4.18023189 2.3125 7.875 C2.62136143 11.87271584 2.81410118 12.77692141 5.5 16 C6.325 16.66 7.15 17.32 8 18 C9.41000664 20.82001327 9.24548451 22.87007255 9 26 C8.46375 26.825 7.9275 27.65 7.375 28.5 C5.66306437 30.96901243 5.66306437 30.96901243 6.61328125 33.91015625 C10.29579179 42.11541214 21.17259284 46.30360376 28.78515625 50.27734375 C43.45174438 58.13635392 55.65187777 67.64219025 61 84 C64.75140679 98.79701234 64.91571697 113.91372884 63 129 C63.94875 128.938125 64.8975 128.87625 65.875 128.8125 C66.90625 128.874375 67.9375 128.93625 69 129 C71 132 71 132 71 135 C67.47320901 137.35119399 65.97120515 137.21443452 61.8125 137.125 C60.72582031 137.10695312 59.63914063 137.08890625 58.51953125 137.0703125 C57.68808594 137.04710937 56.85664063 137.02390625 56 137 C56 140.3 56 143.6 56 147 C56.70125 147.020625 57.4025 147.04125 58.125 147.0625 C62.46253201 148.47691261 64.69983244 151.11801373 67 155 C68.73464935 160.35728722 68.24903429 165.14843939 66.0234375 170.2734375 C63.82822735 173.97680729 60.98496846 175.67167718 57 177 C50.46577665 177.77245664 46.28878778 176.94066541 41 173 C37.69956527 169.44568568 36.73329392 166.73953127 36.5625 162 C36.72431367 157.71517397 37.68114302 154.67152355 40 151 C40.66 151 41.32 151 42 151 C42 150.34 42 149.68 42 149 C45 147 45 147 48 147 C48 143.7 48 140.4 48 137 C32.82 137 17.64 137 2 137 C2 141.29 2 145.58 2 150 C3.98 150.66 5.96 151.32 8 152 C12.90261054 155.76246855 14.8745684 160.05413568 16 166 C16.26056542 171.63863574 14.58059894 176.67481168 11 181 C5.97914777 184.99618851 1.94844308 185.58639088 -4.41796875 185.31640625 C-9.49377097 184.69440931 -12.1475965 182.83303069 -15.75 179.3125 C-19.26337832 174.72244123 -20.30199098 169.64785868 -19.9375 163.9375 C-19.18357374 159.48407513 -17.16806205 156.18491344 -14 153 C-9.06451613 150 -9.06451613 150 -6 150 C-6 145.71 -6 141.42 -6 137 C-21.18 137 -36.36 137 -52 137 C-51.93849339 145.30902263 -51.93849339 145.30902263 -49.22265625 148.05078125 C-48.50980469 148.46714844 -47.79695313 148.88351563 -47.0625 149.3125 C-43.89545144 151.2265239 -42.25799053 152.45591501 -41 156 C-40.3226982 161.21364875 -40.36409705 165.65482068 -42.625 170.4375 C-46.50981085 174.62900644 -49.61617748 177.20979521 -55.4375 177.4375 C-61.13085307 177.14037215 -65.30050311 175.65592005 -69.4375 171.625 C-71.93642915 165.82748438 -72.42736709 158.9252595 -70.234375 152.89453125 C-68.40884821 149.9606489 -66.2810235 148.05839468 -63 147 C-62.01 147 -61.02 147 -60 147 C-60 143.7 -60 140.4 -60 137 C-61.26457031 137.01740234 -61.26457031 137.01740234 -62.5546875 137.03515625 C-64.19824219 137.04869141 -64.19824219 137.04869141 -65.875 137.0625 C-66.96554688 137.07410156 -68.05609375 137.08570313 -69.1796875 137.09765625 C-72 137 -72 137 -74 136 C-74.75 134.125 -74.75 134.125 -75 132 C-74.34 131.01 -73.68 130.02 -73 129 C-69.875 128.8125 -69.875 128.8125 -67 129 C-67.08378906 128.4121875 -67.16757813 127.824375 -67.25390625 127.21875 C-68.10001451 119.76442915 -68.0076501 112.42606836 -67.75 104.9375 C-67.72365479 103.93332031 -67.69730957 102.92914063 -67.67016602 101.89453125 C-66.93208399 83.98179201 -59.53953982 71.27435318 -47 59 C-43.50423729 56 -43.50423729 56 -40 56 C-40 55.34 -40 54.68 -40 54 C-39.26136719 53.64808594 -38.52273437 53.29617187 -37.76171875 52.93359375 C-31.35798288 49.81716321 -25.31747778 46.44190496 -19.375 42.515625 C-17 41 -17 41 -14.7578125 39.9140625 C-12.40694275 38.69161023 -11.99497609 37.4163705 -11 35 C-10.33333333 33.66666667 -9.66666667 32.33333333 -9 31 C-9.73283203 30.39478516 -9.73283203 30.39478516 -10.48046875 29.77734375 C-12.38451663 27.55024405 -12.37586792 26.45305227 -12.3125 23.5625 C-12.30863281 22.80066406 -12.30476563 22.03882812 -12.30078125 21.25390625 C-11.96124131 18.70956149 -11.46361851 17.11411563 -10 15 C-8.68 14.67 -7.36 14.34 -6 14 C-6 10.04 -6 6.08 -6 2 C-2 0 -2 0 0 0 Z M-3 20 C-4.10836423 21.88316159 -4.10836423 21.88316159 -5 24 C-4.67 24.66 -4.34 25.32 -4 26 C-2.68 25.67 -1.36 25.34 0 25 C0 23.68 0 22.36 0 21 C-0.99 20.67 -1.98 20.34 -3 20 Z M-2 38 C-3.54166642 39.37485532 -3.54166642 39.37485532 -5 41 C-5 41.66 -5 42.32 -5 43 C-5.58652344 43.268125 -6.17304687 43.53625 -6.77734375 43.8125 C-9.02078637 45.01110555 -10.64639192 46.33590613 -12.5625 48 C-17.18971793 51.7048489 -22.16960916 54.22856418 -27.4375 56.875 C-34.96417111 60.70545375 -41.26426268 64.68399354 -47 71 C-47.66257812 71.72960937 -48.32515625 72.45921875 -49.0078125 73.2109375 C-56.4308054 82.06262359 -59.1800582 91.51343515 -59.09765625 102.92578125 C-59.09664917 103.58912476 -59.09564209 104.25246826 -59.09460449 104.93591309 C-59.08940423 107.39479318 -59.07544313 109.85364847 -59.0625 112.3125 C-59.041875 117.819375 -59.02125 123.32625 -59 129 C-44.48 129 -29.96 129 -15 129 C-15 128.34 -15 127.68 -15 127 C-16.175625 125.824375 -16.175625 125.824375 -17.375 124.625 C-21.49530544 120.50469456 -22.30499142 117.68571202 -22.375 111.875 C-22.17526291 100.70220673 -16.87246013 90.48151764 -9.5 82.1875 C-6.70368702 79.74072614 -3.88180561 77.34565573 -1 75 C-0.27683594 75.86625 -0.27683594 75.86625 0.4609375 76.75 C1.09257813 77.4925 1.72421875 78.235 2.375 79 C3.00148437 79.7425 3.62796875 80.485 4.2734375 81.25 C4.84320313 81.8275 5.41296875 82.405 6 83 C6.66 83 7.32 83 8 83 C8.11730469 83.58523437 8.23460938 84.17046875 8.35546875 84.7734375 C9.03382675 87.11685604 9.93644235 88.62268702 11.3125 90.625 C17.01070356 99.6361126 19.7688121 108.20768269 18 119 C16.66872023 121.56252117 15.28311533 123.4485346 13.3125 125.546875 C11.77657125 126.92101444 11.77657125 126.92101444 12 129 C26.19 129 40.38 129 55 129 C55.04125 123.369375 55.0825 117.73875 55.125 111.9375 C55.14320801 110.17398193 55.16141602 108.41046387 55.18017578 106.59350586 C55.18602403 105.17562157 55.1911188 103.7577339 55.1953125 102.33984375 C55.20554443 101.61994263 55.21577637 100.9000415 55.22631836 100.1583252 C55.22957265 90.60210455 51.5332501 80.79685242 46 73 C45.34 73 44.68 73 44 73 C43.773125 72.4225 43.54625 71.845 43.3125 71.25 C41.65151778 68.40260191 39.68475439 66.87932807 37 65 C36.34 65 35.68 65 35 65 C35 64.34 35 63.68 35 63 C31.37871557 60.99321599 27.75238357 58.9957352 24.125 57 C23.09246094 56.42765625 22.05992188 55.8553125 20.99609375 55.265625 C19.51689453 54.45351563 19.51689453 54.45351563 18.0078125 53.625 C16.64100342 52.87089844 16.64100342 52.87089844 15.24658203 52.1015625 C13.1177276 50.85324905 13.1177276 50.85324905 11 51 C11 50.34 11 49.68 11 49 C9.37898212 47.58738471 9.37898212 47.58738471 7.3125 46.1875 C3.85714975 43.6895825 0.91826739 41.1006591 -2 38 Z M-3.453125 86.3984375 C-10.1962967 93.81592637 -15.6900574 102.68579912 -16 113 C-15.31704757 115.68852399 -14.38045901 117.55764944 -13 120 C-12.34 120 -11.68 120 -11 120 C-10.67 120.99 -10.34 121.98 -10 123 C-5.72786459 125.84809027 -2.01174323 125.60890338 3 125 C7.11869909 123.20274949 9.13418 121.34581839 10.9375 117.3125 C12.79792814 111.34362637 12.01407431 105.76125631 9.4375 100.125 C6.5045081 94.75871111 2.82472074 89.76120843 -1 85 C-2.21603245 84.88443028 -2.21603245 84.88443028 -3.453125 86.3984375 Z M-61 155 C-63.47342266 158.71013399 -63.38503486 160.61060262 -63 165 C-62.11670357 167.53958234 -62.11670357 167.53958234 -60 169 C-56.08204004 169.56988508 -53.92759017 169.59460908 -50.5625 167.4375 C-48.43332442 164.11598609 -48.57744863 161.87338754 -49 158 C-50.73815974 154.64018776 -50.73815974 154.64018776 -54.4375 154.25 C-57.96108734 153.77488304 -57.96108734 153.77488304 -61 155 Z M45 159 C45 162.56883409 45.31544503 164.88309452 47.1875 167.9375 C49.92243127 169.54073557 51.8903393 169.38077478 55 169 C57.51869332 168.23608998 57.51869332 168.23608998 59 166 C59.5652141 162.90285744 59.57087684 160.09657438 59 157 C56.95620325 154.5020262 55.68106815 154.13970629 52.5625 153.5 C48.69988764 154.25368046 47.27819425 155.85073148 45 159 Z M-11 162 C-12.28998174 166.17347032 -12.29348391 168.22226764 -10.75 172.3125 C-9.11682876 175.20708249 -9.11682876 175.20708249 -6 177 C-1.7524747 177.30891093 1.3586453 177.33046701 5 175 C5 174.34 5 173.68 5 173 C5.66 173 6.32 173 7 173 C8.2350832 166.73936564 8.2350832 166.73936564 6 161 C3.20946897 158.70556338 1.03690023 157.23330255 -2.5 156.4375 C-6.18408043 157.2664181 -8.68571522 159.09436801 -11 162 Z " fill="#181818" transform="translate(81,3)"/>
<path d="M0 0 C4.29 0 8.58 0 13 0 C13.26785714 12.32142857 13.26785714 12.32142857 11 16 C16.7974423 16.24428343 16.7974423 16.24428343 22 14 C22 13.34 22 12.68 22 12 C25.30063098 12.91684194 26.93474769 13.93122054 29.3125 16.4375 C31.65276247 21.3780541 31.78541956 25.62228037 31 31 C28.70321747 35.85857844 25.82159389 38.63468979 21 41 C15.12167674 41.95469119 10.16552756 41.03854562 5 38 C1.07922583 34.1797585 0.68609738 30.7707581 0.5 25.5 C0.67558312 20.00048589 1.15188081 16.95501138 5 13 C7.67344514 11.21770324 8.73770359 11 12 11 C12 7.7 12 4.4 12 1 C8.04 1 4.08 1 0 1 C0 0.67 0 0.34 0 0 Z M11 19 C8.52657734 22.71013399 8.61496514 24.61060262 9 29 C9.88329643 31.53958234 9.88329643 31.53958234 12 33 C15.91795996 33.56988508 18.07240983 33.59460908 21.4375 31.4375 C23.56667558 28.11598609 23.42255137 25.87338754 23 22 C21.26184026 18.64018776 21.26184026 18.64018776 17.5625 18.25 C14.03891266 17.77488304 14.03891266 17.77488304 11 19 Z " fill="#202020" transform="translate(9,139)"/>
<path d="M0 0 C5.48891444 2.18606116 7.55527824 6.87466227 10 12 C11.47278305 16.43755936 12.32310008 20.31269956 11.4375 24.9375 C9.18981053 28.16244576 6.9690429 29.63728157 3.0703125 30.35546875 C-1.14477493 30.64972957 -2.56709333 30.35922043 -5.9375 27.5625 C-6.618125 26.716875 -7.29875 25.87125 -8 25 C-8.33 24.67 -8.66 24.34 -9 24 C-10.30262133 15.69578905 -6.04550306 8.97437406 -2 2 C-1.34 1.34 -0.68 0.68 0 0 Z M0 14 C-0.66 16.31 -1.32 18.62 -2 21 C-0.02 21.99 -0.02 21.99 2 23 C2.33 22.67 2.66 22.34 3 22 C2.74751373 18.48254713 2.74751373 18.48254713 2 15 C1.34 14.67 0.68 14.34 0 14 Z " fill="#181818" transform="translate(78,94)"/>
<path d="M0 0 C11.45658339 4.47333027 23.0141067 10.48704845 32 19 C32.495 20.485 32.495 20.485 33 22 C32.34 22 31.68 22 31 22 C30.34 21.34 29.68 20.68 29 20 C28.34 20.33 27.68 20.66 27 21 C27.66 21.99 28.32 22.98 29 24 C29 25.32 29 26.64 29 28 C27 28 27 28 24.375 25.625 C22 23 22 23 22 21 C20.68 20.67 19.36 20.34 18 20 C18 19.34 18 18.68 18 18 C16.98873047 17.61714844 16.98873047 17.61714844 15.95703125 17.2265625 C12.44867244 15.77131195 9.07321448 14.09052165 5.6875 12.375 C5.04232422 12.05015625 4.39714844 11.7253125 3.73242188 11.390625 C2.15402459 10.59558044 0.57688306 9.79804366 -1 9 C-0.649375 8.071875 -0.29875 7.14375 0.0625 6.1875 C1.32382628 3.0197047 1.32382628 3.0197047 0 0 Z " fill="#1E1E1E" transform="translate(98,48)"/>
<path d="M0 0 C3.3125 0.1875 3.3125 0.1875 7 1 C8.5 3.1015625 8.5 3.1015625 10 6 C10.60199219 7.14855469 11.20398438 8.29710938 11.82421875 9.48046875 C12.44742847 10.71508 13.06849218 11.95077666 13.6875 13.1875 C14.00783203 13.81591797 14.32816406 14.44433594 14.65820312 15.09179688 C17 19.76041111 17 19.76041111 17 22 C16.01 22 15.02 22 14 22 C13.87625 22.5775 13.7525 23.155 13.625 23.75 C12.99274387 26.02612206 12.08136532 27.90760206 11 30 C10.82726562 29.22398438 10.65453125 28.44796875 10.4765625 27.6484375 C7.91131528 17.78753305 3.22707172 10.92644435 -3 3 C-2.01 2.34 -1.02 1.68 0 1 C0 0.67 0 0.34 0 0 Z " fill="#1B1B1B" transform="translate(82,85)"/>
<path d="M0 0 C4.01529945 1.39379999 6.9436182 3.27952541 10.25 5.9375 C11.12140625 6.62714844 11.9928125 7.31679687 12.890625 8.02734375 C15 10 15 10 16 13 C15.34 13 14.68 13 14 13 C13.34 12.34 12.68 11.68 12 11 C11.01 11.495 11.01 11.495 10 12 C10.99 13.485 10.99 13.485 12 15 C12 16.32 12 17.64 12 19 C10 19 10 19 7.375 16.625 C5 14 5 14 5 12 C3.68 11.67 2.36 11.34 1 11 C1 10.34 1 9.68 1 9 C-1.475 8.01 -1.475 8.01 -4 7 C-3.360625 6.87625 -2.72125 6.7525 -2.0625 6.625 C-1.381875 6.41875 -0.70125 6.2125 0 6 C1.24546405 3.50907189 0.7767578 2.58919267 0 0 Z " fill="#2C2C2C" transform="translate(115,57)"/>
<path d="M0 0 C1.98 0 3.96 0 6 0 C6 2.31 6 4.62 6 7 C7.32 7.66 8.64 8.32 10 9 C9.67 10.32 9.34 11.64 9 13 C5.32589215 14.17571451 1.83070817 14.07366746 -2 14 C-2.33 13.34 -2.66 12.68 -3 12 C-2.34 11.01 -1.68 10.02 -1 9 C-0.54605448 6.72087062 -0.54605448 6.72087062 -0.375 4.3125 C-0.30023437 3.50425781 -0.22546875 2.69601563 -0.1484375 1.86328125 C-0.09945313 1.24839844 -0.05046875 0.63351563 0 0 Z " fill="#060606" transform="translate(22,142)"/>
<path d="M0 0 C3.3125 0.1875 3.3125 0.1875 7 1 C9.34885769 3.87924492 10 5.27472933 10 9 C8.68 9.33 7.36 9.66 6 10 C5.67 11.32 5.34 12.64 5 14 C2.36 10.37 -0.28 6.74 -3 3 C-2.01 2.34 -1.02 1.68 0 1 C0 0.67 0 0.34 0 0 Z " fill="#2D2D2D" transform="translate(82,85)"/>
<path d="M0 0 C1.9375 0.75 1.9375 0.75 4 2 C4.8125 4 4.8125 4 5 6 C4 8 4 8 2.125 8.75 C0 9 0 9 -3 7 C-3.375 4.5 -3.375 4.5 -3 2 C-2.01 1.34 -1.02 0.68 0 0 Z " fill="#323231" transform="translate(78,53)"/>
<path d="M0 0 C2.375 -0.125 2.375 -0.125 5 0 C7 2 7 2 7.125 4.625 C7.08375 5.40875 7.0425 6.1925 7 7 C5.0085944 7.38133299 3.00720923 7.71325582 1 8 C0 7 0 7 -0.0625 3.4375 C-0.041875 2.303125 -0.02125 1.16875 0 0 Z " fill="#333332" transform="translate(28,108)"/>
<path d="M0 0 C2.625 -0.1875 2.625 -0.1875 5 0 C5.66 1.65 6.32 3.3 7 5 C5.68 5.99 4.36 6.98 3 8 C1.0625 7.1875 1.0625 7.1875 -1 6 C-1.33 5.01 -1.66 4.02 -2 3 C-1.34 2.01 -0.68 1.02 0 0 Z " fill="#303030" transform="translate(35,83)"/>
<path d="M0 0 C2.625 0.375 2.625 0.375 5 1 C5.625 3.375 5.625 3.375 6 6 C5.34 6.66 4.68 7.32 4 8 C1.375 7.625 1.375 7.625 -1 7 C-1.625 4.625 -1.625 4.625 -2 2 C-1.34 1.34 -0.68 0.68 0 0 Z " fill="#232323" transform="translate(111,73)"/>
<path d="M0 0 C1.65 0.33 3.3 0.66 5 1 C6.125 5.75 6.125 5.75 5 8 C3.35 8 1.7 8 0 8 C-1.125 6.25 -1.125 6.25 -2 4 C-1.125 1.75 -1.125 1.75 0 0 Z " fill="#2F2F2C" transform="translate(100,66)"/>
<path d="M0 0 C0.598125 0.20625 1.19625 0.4125 1.8125 0.625 C2.4375 3 2.4375 3 2.8125 5.625 C0.8125 7.625 0.8125 7.625 -1.8125 7.75 C-2.59625 7.70875 -3.38 7.6675 -4.1875 7.625 C-4.5175 5.645 -4.8475 3.665 -5.1875 1.625 C-2.1875 -0.375 -2.1875 -0.375 0 0 Z " fill="#242424" transform="translate(57.1875,66.375)"/>
<path d="M0 0 C2.475 0.99 2.475 0.99 5 2 C5 3.65 5 5.3 5 7 C3.35 7.66 1.7 8.32 0 9 C-2 7 -2 7 -2.25 4.5 C-2 2 -2 2 0 0 Z " fill="#222222" transform="translate(66,60)"/>
<path d="M0 0 C1.125 4.75 1.125 4.75 0 7 C-2.97 6.505 -2.97 6.505 -6 6 C-6.33 4.35 -6.66 2.7 -7 1 C-3.375 -1.125 -3.375 -1.125 0 0 Z " fill="#282828" transform="translate(129,96)"/>
<path d="M0 0 C1.65 0.33 3.3 0.66 5 1 C5.33 2.65 5.66 4.3 6 6 C3.6875 7.125 3.6875 7.125 1 8 C0.01 7.34 -0.98 6.68 -2 6 C-1.34 4.02 -0.68 2.04 0 0 Z " fill="#393939" transform="translate(119,83)"/>
<path d="M0 0 C1.98 0 3.96 0 6 0 C6.1875 2.875 6.1875 2.875 6 6 C5.01 6.66 4.02 7.32 3 8 C2.01 7.67 1.02 7.34 0 7 C-1.125 2.25 -1.125 2.25 0 0 Z " fill="#3A3A39" transform="translate(88,61)"/>
<path d="M0 0 C2.125 0.9375 2.125 0.9375 4 2 C4 3.65 4 5.3 4 7 C2.1875 7.625 2.1875 7.625 0 8 C-0.99 7.34 -1.98 6.68 -3 6 C-2.625 3.5625 -2.625 3.5625 -2 1 C-1.34 0.67 -0.68 0.34 0 0 Z " fill="#1A1A18" transform="translate(32,95)"/>
<path d="M0 0 C1.4540625 0.0309375 1.4540625 0.0309375 2.9375 0.0625 C2.9375 2.0425 2.9375 4.0225 2.9375 6.0625 C-0.07281744 6.99673645 -0.92900268 7.10699911 -4.0625 6.0625 C-4.105221 4.39638095 -4.10313832 2.72867115 -4.0625 1.0625 C-3.0625 0.0625 -3.0625 0.0625 0 0 Z " fill="#292929" transform="translate(127.0625,108.9375)"/>
<path d="M0 0 C1.98 0 3.96 0 6 0 C6.38218767 1.65614657 6.71395102 3.32457024 7 5 C6 6 6 6 3.4375 6.0625 C2.2309375 6.0315625 2.2309375 6.0315625 1 6 C-0.0625 4.125 -0.0625 4.125 -1 2 C-0.67 1.34 -0.34 0.68 0 0 Z " fill="#323231" transform="translate(42,74)"/>
<path d="M0 0 C2.0625 0.4375 2.0625 0.4375 4 1 C4 1.99 4 2.98 4 4 C3.34 4 2.68 4 2 4 C2 4.66 2 5.32 2 6 C1.34 6 0.68 6 0 6 C-0.38218767 4.34385343 -0.71395102 2.67542976 -1 1 C-0.67 0.67 -0.34 0.34 0 0 Z M4 0 C4.99 0 5.98 0 7 0 C6.67 0.66 6.34 1.32 6 2 C5.34 1.34 4.68 0.68 4 0 Z " fill="#0A0A0A" transform="translate(120,167)"/>
<path d="M0 0 C0.66 0.33 1.32 0.66 2 1 C-2 7.57142857 -2 7.57142857 -6 9 C-4.68775452 5.06326356 -3.08089673 2.77280706 0 0 Z " fill="#4D4D4D" transform="translate(16,151)"/>
<path d="M0 0 C2.0625 0.4375 2.0625 0.4375 4 1 C3.67 1.99 3.34 2.98 3 4 C0.9375 4.6875 0.9375 4.6875 -1 5 C-1 1 -1 1 0 0 Z " fill="#1C1C1C" transform="translate(121,86)"/>
<path d="M0 0 C0.66 0.33 1.32 0.66 2 1 C2 2.65 2 4.3 2 6 C0.35 6.66 -1.3 7.32 -3 8 C-3.33 7.34 -3.66 6.68 -4 6 C-3.01 5.34 -2.02 4.68 -1 4 C-0.27617533 1.94074861 -0.27617533 1.94074861 0 0 Z " fill="#4C4C4C" transform="translate(69,61)"/>
<path d="M0 0 C0.99 0 1.98 0 3 0 C2.67 1.65 2.34 3.3 2 5 C0.68 5 -0.64 5 -2 5 C-1.34 3.35 -0.68 1.7 0 0 Z " fill="#191919" transform="translate(31,111)"/>
<path d="M0 0 C0.99 0.99 1.98 1.98 3 3 C2.67 3.99 2.34 4.98 2 6 C1.01 5.67 0.02 5.34 -1 5 C-1 4.34 -1 3.68 -1 3 C-1.66 2.67 -2.32 2.34 -3 2 C-2.01 1.34 -1.02 0.68 0 0 Z " fill="#040404" transform="translate(127,67)"/>
<path d="M0 0 C1.32 0.33 2.64 0.66 4 1 C3.01 1.495 3.01 1.495 2 2 C1.34444881 4.52733235 1.34444881 4.52733235 1 7 C0.34 7 -0.32 7 -1 7 C-1.625 5.1875 -1.625 5.1875 -2 3 C-1.34 2.01 -0.68 1.02 0 0 Z " fill="#3E3E3E" transform="translate(8,132)"/>
<path d="M0 0 C0.99 0 1.98 0 3 0 C2.67 1.65 2.34 3.3 2 5 C1.01 4.67 0.02 4.34 -1 4 C-0.67 2.68 -0.34 1.36 0 0 Z " fill="#121211" transform="translate(88,62)"/>
</svg>
