<?xml version="1.0" standalone="no"?>
<!DOCTYPE svg PUBLIC "-//W3C//DTD SVG 20010904//EN"
 "http://www.w3.org/TR/2001/REC-SVG-20010904/DTD/svg10.dtd">
<svg version="1.0" xmlns="http://www.w3.org/2000/svg"
 width="843.000000pt" height="679.000000pt" viewBox="0 0 843.000000 679.000000"
 preserveAspectRatio="xMidYMid meet">

<g transform="translate(0.000000,679.000000) scale(0.100000,-0.100000)"
fill="#000000" stroke="none">
<path d="M4217 6622 c-13 -15 -17 -39 -17 -115 0 -105 3 -98 -69 -154 -40 -32
-71 -100 -71 -156 0 -53 31 -120 71 -158 l31 -29 -42 -55 c-81 -105 -186 -181
-444 -319 -270 -145 -374 -223 -482 -359 -102 -129 -175 -283 -216 -457 -18
-75 -21 -128 -25 -437 l-5 -353 -49 0 c-37 0 -53 -5 -68 -22 -32 -33 -35 -57
-14 -87 19 -25 24 -26 144 -31 l124 -5 3 -106 3 -105 -56 -23 c-180 -75 -234
-317 -102 -467 55 -62 142 -104 218 -104 85 0 145 25 210 89 47 46 60 67 74
115 45 155 -39 333 -172 369 l-43 11 0 113 0 113 485 0 486 0 -3 -151 -3 -152
-50 -14 c-232 -68 -311 -392 -141 -580 19 -22 64 -55 98 -74 60 -32 68 -34
163 -34 113 0 164 17 241 80 53 44 109 151 118 229 22 175 -100 357 -256 382
l-38 7 0 153 0 154 490 0 490 0 0 -115 c0 -97 -2 -115 -15 -115 -59 0 -163
-100 -191 -182 -22 -66 -15 -177 13 -233 89 -172 316 -218 458 -93 71 62 99
125 99 223 1 68 -3 89 -27 137 -34 69 -92 121 -158 143 l-49 17 0 109 0 109
120 0 c115 0 122 1 145 25 14 13 25 34 25 45 0 11 -11 32 -25 45 -20 21 -34
25 -79 25 l-54 0 -5 358 c-4 316 -7 367 -25 443 -58 241 -178 437 -367 597
-91 77 -145 110 -345 215 -230 120 -325 190 -428 314 l-42 51 29 21 c39 28 81
114 81 166 0 62 -42 138 -96 172 l-44 28 0 106 c0 90 -3 108 -18 122 -24 22
-65 21 -85 -1z m101 -378 c30 -33 29 -78 -3 -109 -69 -69 -175 23 -119 103 33
47 82 49 122 6z m-13 -396 c92 -116 201 -192 510 -353 324 -169 488 -363 577
-685 19 -68 22 -109 25 -427 l5 -353 -484 0 c-449 1 -481 2 -453 17 129 69
205 199 208 353 2 164 -70 332 -241 558 -102 136 -170 212 -190 212 -47 0
-281 -300 -361 -461 -111 -223 -103 -429 23 -566 28 -31 71 -69 95 -85 l45
-28 -487 0 -487 0 0 308 c0 233 4 329 16 397 40 231 135 410 294 558 91 84
172 137 373 244 207 110 329 195 416 290 36 40 68 73 71 72 3 0 23 -23 45 -51z
m6 -921 c135 -182 196 -294 230 -423 33 -128 8 -222 -84 -312 -51 -50 -119
-88 -137 -77 -6 4 -10 26 -10 50 0 41 3 45 43 67 31 17 49 37 70 77 33 66 34
105 4 191 -22 64 -120 255 -151 295 -16 20 -17 19 -49 -17 -48 -53 -134 -223
-151 -299 -9 -36 -13 -81 -9 -103 8 -50 60 -126 100 -145 31 -15 33 -19 33
-69 l0 -52 -37 15 c-118 49 -203 177 -203 306 0 69 42 193 97 285 51 84 191
274 202 274 3 0 27 -29 52 -63z m-26 -389 c13 -29 29 -74 36 -99 11 -41 10
-50 -7 -80 -16 -27 -27 -35 -56 -37 -29 -2 -40 2 -57 24 -12 15 -21 41 -21 61
0 36 59 182 73 183 4 0 19 -24 32 -52z m-1047 -1025 c32 -23 72 -97 72 -133 0
-40 -42 -113 -79 -137 -67 -45 -174 -15 -211 58 -41 80 -18 164 60 217 28 19
44 23 83 19 27 -2 61 -13 75 -24z m2203 4 c18 -12 44 -38 57 -57 33 -48 28
-146 -8 -186 -73 -78 -190 -70 -248 16 -20 29 -23 45 -20 95 3 42 10 70 26 92
44 62 132 81 193 40z m-1125 -72 c119 -35 186 -178 139 -293 -69 -165 -309
-163 -386 3 -50 108 6 250 114 289 54 19 73 19 133 1z"/>
<path d="M4202 5664 c-59 -41 -63 -114 -10 -159 43 -37 101 -35 138 5 49 53
46 110 -8 149 -35 25 -89 27 -120 5z"/>
<path d="M3946 5487 c-34 -34 -34 -78 -1 -112 34 -33 78 -33 110 0 49 48 23
120 -47 131 -30 5 -41 2 -62 -19z"/>
<path d="M4449 5500 c-9 -5 -22 -23 -29 -40 -33 -79 65 -146 125 -85 35 34 34
86 -1 114 -28 22 -68 27 -95 11z"/>
<path d="M3731 5364 c-36 -46 -19 -105 35 -118 37 -10 62 1 79 34 21 40 19 57
-10 85 -33 34 -77 33 -104 -1z"/>
<path d="M4697 5383 c-19 -5 -47 -52 -47 -78 0 -25 46 -65 75 -65 33 0 75 41
75 73 0 47 -53 84 -103 70z"/>
<path d="M3530 5220 c-28 -28 -27 -84 2 -104 50 -35 118 -5 118 52 0 60 -78
94 -120 52z"/>
<path d="M4900 5218 c-25 -27 -26 -79 -2 -101 25 -23 85 -22 106 2 10 10 18
34 18 52 2 62 -79 93 -122 47z"/>
<path d="M3371 5004 c-12 -15 -21 -35 -21 -46 0 -27 45 -68 75 -68 31 0 75 41
75 70 0 12 -11 32 -25 45 -33 34 -77 33 -104 -1z"/>
<path d="M5049 5012 c-48 -39 -16 -122 48 -122 31 0 73 42 73 73 0 57 -74 87
-121 49z"/>
<path d="M3261 4774 c-12 -15 -21 -35 -21 -46 0 -24 44 -68 68 -68 33 0 72 38
72 71 0 65 -80 93 -119 43z"/>
<path d="M5142 4780 c-56 -53 12 -145 80 -109 30 16 38 28 38 62 0 59 -74 88
-118 47z"/>
<path d="M3226 4517 c-69 -70 20 -177 97 -117 52 41 28 123 -40 136 -26 5 -37
1 -57 -19z"/>
<path d="M5203 4530 c-75 -30 -43 -146 37 -138 72 7 92 101 30 133 -33 17 -36
17 -67 5z"/>
<path d="M1812 2353 c-6 -10 -35 -79 -65 -153 -30 -74 -85 -207 -122 -295 -36
-88 -100 -245 -142 -348 -42 -103 -85 -202 -97 -220 -12 -18 -43 -43 -69 -57
-36 -19 -47 -30 -45 -45 3 -19 11 -20 193 -20 l190 0 0 24 c0 19 -8 27 -40 38
-78 26 -81 56 -26 204 l39 104 192 0 192 0 45 -120 c53 -143 51 -161 -17 -186
-36 -13 -45 -21 -45 -40 l0 -24 224 -3 c127 -1 229 2 234 7 17 17 -3 49 -34
56 -67 15 -85 48 -251 466 -87 217 -179 446 -206 509 l-48 115 -46 3 c-37 2
-49 -1 -56 -15z m26 -308 c6 -16 38 -100 71 -185 34 -85 61 -158 61 -162 0 -5
-68 -8 -151 -8 -117 0 -150 3 -147 13 82 224 144 384 149 379 4 -4 11 -20 17
-37z"/>
<path d="M4065 2356 c-100 -32 -179 -96 -213 -175 -24 -56 -22 -185 4 -242 47
-101 111 -150 327 -249 65 -29 138 -71 162 -92 141 -124 63 -298 -134 -298
-130 0 -243 76 -301 203 -32 72 -52 89 -76 65 -11 -10 -15 -45 -17 -134 -3
-169 -6 -164 105 -196 127 -38 187 -48 282 -48 177 0 308 70 378 202 19 36 23
58 23 133 -1 80 -4 96 -30 144 -43 78 -103 125 -255 199 -196 95 -254 134
-279 186 -54 111 -1 193 133 203 78 7 126 -8 178 -55 38 -35 88 -117 88 -145
0 -22 27 -39 50 -32 20 6 20 12 18 153 l-3 147 -45 1 c-25 0 -81 10 -125 22
-90 25 -207 28 -270 8z"/>
<path d="M6596 2341 c-9 -16 -36 -80 -61 -142 -40 -98 -126 -304 -316 -761
-42 -100 -69 -133 -138 -170 -21 -12 -31 -24 -29 -35 3 -16 20 -18 193 -18
185 0 190 1 193 21 2 17 -7 25 -47 42 -68 28 -73 51 -36 158 16 45 35 97 44
115 l16 34 192 3 191 2 30 -77 c64 -167 65 -174 44 -202 -11 -14 -36 -31 -57
-36 -39 -12 -58 -33 -46 -53 6 -9 65 -12 242 -10 225 3 234 4 234 23 0 13 -17
29 -55 50 -52 29 -57 35 -92 118 -44 101 -245 598 -326 802 -30 77 -59 146
-65 153 -5 6 -29 12 -53 12 -38 0 -45 -4 -58 -29z m53 -353 c19 -51 51 -137
73 -191 21 -53 38 -100 38 -102 0 -3 -67 -5 -150 -5 -87 0 -150 4 -150 9 0 17
143 381 149 381 4 0 22 -42 40 -92z"/>
<path d="M382 2323 c2 -20 11 -29 38 -38 71 -24 70 -18 70 -507 l0 -437 -24
-27 c-13 -16 -39 -33 -57 -39 -26 -9 -34 -17 -34 -36 l0 -24 231 -3 c207 -2
232 -1 238 14 9 23 -7 39 -53 53 -73 22 -81 42 -81 217 l0 154 105 0 c271 0
431 82 484 248 53 165 -12 323 -166 401 -84 42 -165 51 -469 51 l-285 0 3 -27z
m573 -97 c96 -45 138 -114 138 -226 0 -108 -36 -171 -128 -218 -44 -22 -63
-26 -150 -26 l-100 -1 -3 248 -2 247 97 0 c82 0 106 -4 148 -24z"/>
<path d="M2537 2344 c-19 -20 -5 -44 33 -55 21 -7 50 -23 62 -36 l23 -25 3
-436 c3 -391 1 -440 -13 -468 -16 -30 -51 -54 -79 -54 -8 0 -19 -7 -26 -15
-10 -12 -10 -18 0 -30 11 -13 47 -15 239 -13 l226 3 0 25 c0 19 -7 27 -35 35
-92 27 -100 48 -100 268 l0 158 67 -3 68 -3 42 -70 c24 -38 68 -113 99 -165
136 -227 160 -244 359 -245 129 0 130 0 130 23 0 19 -11 27 -60 47 -80 32
-137 95 -248 274 -106 168 -109 176 -70 184 15 3 56 24 89 45 53 34 67 50 95
108 28 56 33 78 34 138 0 99 -23 153 -91 215 -40 37 -73 57 -122 73 -63 21
-88 22 -392 26 -179 2 -329 0 -333 -4z m593 -111 c145 -59 174 -276 50 -374
-46 -36 -135 -59 -232 -59 l-78 0 0 224 c0 205 2 225 18 229 31 9 206 -5 242
-20z"/>
<path d="M4752 2324 c2 -22 11 -29 42 -38 22 -6 48 -23 60 -39 20 -28 21 -39
24 -452 3 -493 5 -483 -78 -517 -41 -17 -50 -25 -48 -42 3 -20 8 -21 213 -24
116 -1 220 0 233 3 38 9 25 45 -23 62 -22 7 -50 25 -62 39 -22 24 -23 32 -23
230 l0 204 270 0 270 0 0 -194 c0 -113 -4 -206 -11 -224 -8 -24 -24 -38 -65
-57 -30 -14 -54 -29 -54 -33 1 -30 19 -32 241 -30 216 3 224 4 224 23 0 14
-14 27 -48 43 -30 14 -51 32 -57 48 -6 15 -10 203 -10 450 0 338 3 431 14 458
12 30 27 40 89 60 10 3 17 15 17 31 l0 25 -236 0 -235 0 3 -27 c2 -21 11 -29
46 -41 74 -24 82 -47 82 -249 l0 -173 -271 0 -270 0 3 189 c3 212 6 222 76
238 30 7 37 13 37 33 l0 25 -228 3 -228 2 3 -26z"/>
<path d="M7003 2334 c-8 -21 8 -34 64 -53 35 -12 55 -27 75 -56 25 -35 226
-505 370 -865 27 -69 54 -131 60 -137 6 -7 30 -13 54 -13 53 0 43 -19 192 340
184 443 267 633 294 675 23 37 46 55 91 69 12 4 17 14 15 28 -3 23 -4 23 -196
26 -165 2 -193 0 -198 -13 -8 -21 12 -42 46 -50 41 -9 64 -40 63 -84 -2 -54
-242 -686 -255 -673 -14 14 -270 645 -275 680 -7 39 16 68 60 80 38 10 58 38
37 52 -8 6 -119 10 -253 10 -207 0 -238 -2 -244 -16z"/>
<path d="M4492 720 c-236 -49 -328 -321 -168 -498 59 -65 121 -87 246 -87 94
0 110 3 155 27 73 38 130 104 151 174 32 110 -5 249 -84 314 -71 58 -205 90
-300 70z m172 -124 c66 -50 97 -144 75 -231 -17 -66 -79 -130 -135 -140 -49
-8 -111 7 -146 35 -57 45 -84 159 -58 251 29 106 176 153 264 85z"/>
<path d="M2200 702 c0 -5 7 -17 15 -28 21 -28 22 -471 0 -500 -8 -10 -15 -22
-15 -26 0 -5 94 -8 209 -8 l209 0 6 31 c3 17 6 43 6 56 0 22 -3 24 -22 18 -13
-4 -74 -10 -135 -12 l-113 -5 0 87 0 87 100 -4 100 -3 0 50 0 50 -100 -3 -100
-3 0 66 0 67 103 -5 c56 -3 114 -8 130 -12 l27 -7 0 56 0 56 -210 0 c-115 0
-210 -4 -210 -8z"/>
<path d="M2825 700 c-3 -5 7 -22 24 -36 17 -14 64 -73 105 -131 l74 -105 -80
-112 c-44 -61 -93 -123 -109 -138 -16 -15 -29 -29 -29 -32 0 -3 41 -6 90 -6
86 0 90 1 90 22 0 21 88 168 101 168 3 0 28 -33 54 -73 78 -119 76 -117 172
-117 46 0 83 4 83 8 0 5 -18 23 -39 40 -44 36 -184 230 -177 247 7 20 138 199
168 231 15 17 25 33 22 37 -4 4 -45 7 -91 7 l-83 0 0 -28 c0 -24 -54 -117 -90
-155 -8 -9 -96 127 -102 158 -3 18 -12 20 -90 23 -52 2 -89 -1 -93 -8z"/>
<path d="M3588 704 c-4 -3 -1 -16 7 -28 12 -16 15 -65 15 -252 0 -217 -1 -232
-20 -249 -11 -10 -17 -22 -14 -26 3 -5 46 -9 96 -9 82 0 89 2 82 17 -5 10 -10
55 -12 99 l-3 81 105 5 c93 4 110 8 145 31 54 36 75 78 76 153 0 49 -5 68 -27
101 -45 68 -78 78 -273 81 -94 2 -173 0 -177 -4z m294 -100 c52 -27 54 -117 3
-161 -21 -18 -38 -23 -86 -23 l-59 0 0 99 c0 95 1 100 23 104 31 6 87 -3 119
-19z"/>
<path d="M5098 705 c-4 -4 -1 -17 7 -29 22 -31 22 -488 0 -506 -29 -24 -14
-30 81 -30 l95 0 -15 22 c-11 16 -16 46 -16 105 l0 83 38 0 c36 0 38 -2 77
-76 22 -42 55 -89 73 -105 30 -27 39 -29 112 -29 44 0 80 3 80 8 0 4 -13 14
-28 23 -23 13 -159 198 -150 204 2 1 17 7 34 14 18 7 44 26 60 42 23 24 29 40
32 92 4 79 -18 122 -79 157 -41 23 -55 25 -219 28 -96 2 -178 1 -182 -3z m282
-88 c64 -22 79 -95 31 -149 -27 -30 -34 -33 -93 -33 l-63 0 -3 84 c-2 46 -1
90 2 98 7 16 78 16 126 0z"/>
<path d="M5760 681 c0 -52 17 -82 42 -77 13 3 49 7 81 10 l57 6 0 -219 c0
-182 -3 -221 -15 -231 -29 -24 -14 -30 87 -30 97 0 100 1 85 18 -14 16 -17 50
-19 231 -2 175 0 214 12 221 8 5 43 6 78 3 73 -7 82 -1 82 60 l0 37 -245 0
-245 0 0 -29z"/>
</g>
</svg>
